<svg width="216" height="48" fill="none" xmlns="http://www.w3.org/2000/svg"><path d="M27.5 17.642c-.16-.046-.182.079-.221.186-.243.701-.74 1.26-.995 1.973-.192.548-.718.966-1 1.492-.809 1.504-1.792 2.9-2.629 4.38-.853 1.516-1.64 3.076-2.55 4.55-2.48 4.031-4.719 8.203-7.166 12.25-.882 1.452-1.73 2.928-2.578 4.403-.266.458-.672.526-1.136.526-1.74 0-3.487.033-5.228-.012-1.13-.028-2.244.175-3.37.158-.655-.01-.785-.163-.446-.684.984-1.509 1.78-3.12 2.713-4.657 1.17-1.933 2.352-3.866 3.37-5.895.717-1.425 1.684-2.72 2.492-4.104 1.147-1.961 2.284-3.923 3.346-5.935.605-1.136 1.244-2.267 2.007-3.324.83-1.153 1.435-2.464 2.142-3.708 1.187-2.097 2.346-4.21 3.584-6.274.678-1.136 1.407-2.238 2.029-3.408.401-.763.904-1.464 1.3-2.222 1.13-2.159 2.605-4.12 3.702-6.296.051-.102.09-.22.158-.311.181-.238.108-.752.407-.73.289.023.498.436.662.747 1.424 2.696 3.182 5.2 4.55 7.936.944 1.882 2.176 3.612 3.244 5.432a128.31 128.31 0 0 1 2.623 4.629c.808 1.515 1.64 3.035 2.736 4.37.237.287.13.61.305.904 1.373 2.25 2.634 4.561 4.036 6.794 1.249 1.995 2.312 4.103 3.499 6.138 1.854 3.177 3.741 6.336 5.607 9.502.107.18.215.373.26.576.067.3-.051.537-.402.498-2.718-.272-5.443-.096-8.167-.096-1 0-1.526-.311-2.024-1.193-2.566-4.544-5.228-9.032-7.834-13.549-2.775-4.821-5.556-9.637-8.428-14.402-.158-.26-.271-.56-.616-.644h.017Z" fill="#6869F9"/><path d="M35.107 39.296c-.096.565-.514.86-.847 1.204-.843.87-1.702 1.724-2.55 2.589-1.249 1.283-2.487 2.572-3.73 3.855-.272.282-.486.226-.763-.057a1355.96 1355.96 0 0 0-6.953-6.992c-.339-.34-.373-.577-.096-1.017a57.449 57.449 0 0 0 2.04-3.47c1.007-1.895 2.154-3.709 3.256-5.552.61-1.017 1.29-1.995 1.736-3.114.192-.48.56-.243.746.062a92.011 92.011 0 0 1 1.893 3.216c1.42 2.555 2.798 5.133 4.386 7.586.351.537.594 1.136.877 1.69h.005Z" fill="#F47820"/><path d="M87.657 46.068c-1.712 0-2.407-.752-2.871-2.81-.3-1.322-.791-2.594-1.193-3.894-.13-.418-.43-.526-.836-.52-3.047.017-6.094.017-9.14.034-.916 0-1.266.356-1.498 1.373-.3 1.317-.362 2.781-1.255 3.934-.068.085-.118.181-.17.272-.265.508.006 1.419-.644 1.543-1.102.203-2.26.277-3.385.011-.396-.096-.385-.435-.278-.797.64-2.074 1.448-4.08 2.239-6.099.842-2.142 1.656-4.29 2.436-6.455 1.051-2.916 1.967-5.878 3.047-8.79.599-1.616 1.08-3.283 1.701-4.905.186-.492.48-.718.921-.735.905-.04 1.815-.029 2.72-.012.581.012.807.475.943.922 1.351 4.38 3.126 8.608 4.669 12.921a586.643 586.643 0 0 1 3.708 10.745c.203.6.548 1.13.661 1.798.226 1.317.187 1.441-1.119 1.464h-.656Zm-9.682-23.622c-.113.549-.164 1.125-.35 1.65-1.284 3.55-2.228 7.213-3.703 10.695-.22.52-.316.837.385.837 2.43.005 4.855 0 7.285 0 .532 0 .752-.215.51-.746-1.058-2.312-1.244-4.901-2.324-7.218-.769-1.657-1.13-3.465-1.803-5.218ZM214.988 30.314c0 4.059.006 8.117 0 12.181 0 1.724-.509 2.114-2.131 2.798-1.922.803-3.911.956-5.895.967-4.646.028-7.67-2.877-7.71-7.444-.023-2.646-.073-5.291 0-7.936.062-2.544 2.368-5.466 5.127-5.93 1.955-.328 3.866-.277 5.771.277 1.125.328 1.175.255 1.164-.96-.022-2.103-.005-4.206.017-6.309.017-1.249.305-1.497 1.583-1.486.469 0 .927.124 1.385.175.678.08.706.424.701.95-.012 4.239-.006 8.484-.006 12.723l-.006-.006Zm-3.674 5.184h-.011c0-1.594.011-3.188-.006-4.782-.005-.61.147-1.283-.181-1.809-.305-.492-.955-.13-1.424-.288-.068-.023-.13-.068-.198-.096-1.373-.566-2.787-.566-4.188-.181-1.165.316-1.945 1.096-2.131 2.312-.447 2.843-.277 5.703-.187 8.557.051 1.673 1.244 3.058 2.849 3.573 1.447.457 2.849.175 4.262-.12.887-.18 1.249-.711 1.226-1.621-.039-1.849-.011-3.697-.011-5.545ZM166.87 45.632c-1.899-.005-1.911 0-2.532-1.746-1.623-4.567-3.188-9.146-4.856-13.696-.983-2.69-1.684-5.472-2.764-8.128-.441-1.085-.61-2.278-.91-3.42-.152-.576-.028-.915.662-.87.435.028.87.04 1.305 0 1.153-.102 1.758.44 2.131 1.509 1.283 3.646 2.278 7.388 3.612 11 .904 2.441 1.13 5.075 2.374 7.41.407.757.401 1.735.582 2.617.051.254.085.537.435.492.255-.034.306-.26.345-.492.509-3.318 1.786-6.399 2.849-9.553a341.495 341.495 0 0 0 3.685-11.542c.334-1.113.82-1.605 1.962-1.441.282.04.576 0 .87 0 1.379 0 1.775.412 1.266 1.724-.938 2.408-1.628 4.9-2.656 7.274-.594 1.368-.95 2.838-1.413 4.262-.814 2.51-1.628 5.014-2.425 7.53-.577 1.825-1.204 3.628-1.967 5.386-.724 1.679-.701 1.69-2.549 1.679l-.006.005ZM188.71 36.532h-5.002c-1.334 0-1.402.073-1.408 1.396 0 1.244.13 2.481.837 3.516 1.842 2.702 6.296 2.38 8.213-.549.729-1.113 1.17-1.175 2.402-.339.989.673 1.029 1.137.26 2.244-2.097 3.013-5.031 3.714-8.507 3.335-3.324-.361-5.262-2.193-6.302-5.206a6.555 6.555 0 0 1-.379-2.198c.011-2.103-.096-4.211.023-6.303.101-1.86.695-3.612 1.967-5.053 2.221-2.51 5.053-2.91 8.162-2.334.814.152 1.565.463 2.311.82 2.041.994 3.002 2.769 3.381 4.872.271 1.486.344 3.007.26 4.527-.051.882-.368 1.306-1.329 1.272-1.628-.057-3.261-.017-4.889-.017v.017Zm-1.781-2.657v.012h3.804c.39 0 .764-.012.724-.543-.136-1.928-.204-3.872-2.182-5.036-1.334-.786-3.996-.582-5.194.356-1.487 1.164-1.6 2.809-1.775 4.454-.074.69.429.746.927.752 1.232.01 2.464 0 3.696 0v.005ZM138.568 35.142c.051-1.51-.085-3.019.181-4.534.503-2.87 3.047-5.335 6.495-5.72 1.984-.22 3.775.074 5.55.758 2.504.96 3.612 3.063 3.9 5.539.39 3.335.379 6.704-.271 10.01-.543 2.776-3.086 4.517-6.025 4.907-1.798.237-3.516.22-5.189-.453-3.154-1.266-4.494-3.77-4.629-7.031-.046-1.159-.006-2.318-.006-3.476h-.006Zm12.56.503c.017-1.492.017-2.872-.153-4.24-.192-1.531-.916-2.634-2.43-3.091-.809-.25-1.656-.063-2.482-.08-2.193-.04-3.917 1.55-3.968 3.737a96.169 96.169 0 0 0 .051 6.262c.034.843-.034 1.742.424 2.527 1.396 2.397 4.087 3.148 6.608 1.786.995-.537 1.695-1.379 1.786-2.566.119-1.48.26-2.962.175-4.33l-.011-.005ZM99.56 24.939c2.889-.034 5.139.588 6.744 2.719.108.147.209.294.305.446.978 1.566.481 2.629-1.356 2.928-.82.136-1.035-.52-1.34-1.029-1.198-2-4.776-2.735-6.67-1.379-1.028.74-1.577 1.696-1.305 2.962.254 1.21 1.22 1.786 2.3 2.04 1.6.385 3.245.583 4.856.922 2.532.526 4.007 2.086 4.533 4.63.672 3.25-2.193 6.692-5.54 6.923-2.074.142-4.058.125-6.053-.469-1.436-.43-3.804-2.995-3.99-4.425-.012-.074-.04-.153-.018-.215.373-.995 1.39-.91 2.148-1.193.497-.18 1.17-.271 1.453.503 1.057 2.894 3.793 3.363 6.336 2.634 1.34-.384 2.323-1.735 2.25-2.996-.079-1.418-1.001-2.362-2.544-2.622-1.701-.289-3.42-.51-5.093-.9-1.243-.287-2.368-.898-3.165-1.977-2.086-2.827-1.227-7.665 3.007-9.01 1.13-.362 2.295-.633 3.148-.492h-.005ZM113.743 34.384c0-1.594-.028-3.194.011-4.787.017-.701-.192-1-.915-.956-.684.046-1.38-.022-2.069.023-.594.04-.718-.215-.741-.758-.096-2.3-.113-2.3 2.188-2.3 1.044 0 1.535-.52 1.475-1.56-.011-.254-.028-.509-.017-.763.119-2.956-.373-2.363 2.628-2.487.634-.028.944.22.922.882-.028.87 0 1.74-.023 2.611-.017.763.328 1.147 1.097 1.136.87-.006 1.741 0 2.611-.017.746-.011 1.187.266 1.119 1.08-.011.141 0 .288 0 .435.008 1.146-.576 1.715-1.752 1.707h-1.198c-2.018 0-2.126.283-1.945 2.357.181 2.018.063 4.058.08 6.088.005.836.028 1.667.028 2.504 0 1.537 1.051 2.679 2.572 2.764.034 0 .073.005.107 0 2.108-.181 2.521.491 2.086 2.798-.068.373-.221.503-.554.486-1.289-.068-2.589.141-3.872-.238-2.295-.684-3.352-2.052-3.663-4.493-.277-2.17-.192-4.341-.192-6.512h.017ZM125.935 36.532c0-2.577-.017-5.15.006-7.727.011-1.35.622-2.148 1.939-2.51 1.531-.418 3.063-.813 4.691-.706.78.051 1.566.068 2.363-.147.876-.237 1.424.305 1.447 1.238.034 1.707-.232 1.973-1.979 1.978-1.153 0-2.3-.073-3.442.22-.865.221-1.356.6-1.345 1.623.051 4.46.028 8.92.028 13.38 0 1.57-.175 1.746-1.718 1.751-1.99.006-1.995.006-2.007-2.04-.011-2.357 0-4.714 0-7.071h.017v.011Z" fill="#6869F9"/></svg>
